<svg width="20" height="20" viewBox="0 0 20 20" fill="none" xmlns="http://www.w3.org/2000/svg">
    <mask id="mask0_59_812" style="mask-type:alpha" maskUnits="userSpaceOnUse" x="0" y="0" width="20" height="20">
        <rect width="20" height="20" fill="#D9D9D9"/>
    </mask>
    <g mask="url(#mask0_59_812)">
        <path d="M10 17.7917C8.56412 17.7917 7.40653 17.5929 6.52725 17.1955C5.64799 16.7981 5.20836 16.2746 5.20836 15.625C5.20836 15.2607 5.37208 14.9276 5.69953 14.6258C6.02698 14.324 6.4984 14.0716 7.11378 13.8686L7.41023 14.9135C7.10575 15.0374 6.87471 15.149 6.71713 15.2484C6.55955 15.3478 6.41238 15.4802 6.27563 15.6458C6.344 15.9151 6.76788 16.1595 7.54725 16.379C8.32664 16.5986 9.14423 16.7084 10 16.7084C10.906 16.7084 11.7417 16.5986 12.5072 16.379C13.2727 16.1595 13.6758 15.8942 13.7164 15.5833C13.5379 15.4177 13.3699 15.2866 13.2124 15.1899C13.0548 15.0932 12.8446 14.9941 12.5818 14.8926L12.8862 13.8478C13.5016 14.0508 13.973 14.3067 14.3005 14.6154C14.6279 14.9242 14.7917 15.2607 14.7917 15.625C14.7917 16.2746 14.352 16.7981 13.4728 17.1955C12.5935 17.5929 11.4359 17.7917 10 17.7917ZM10 13.1827C10.2639 12.6945 10.5473 12.2308 10.8502 11.7917C11.1531 11.3526 11.4605 10.9231 11.7725 10.5032C12.297 9.80663 12.7057 9.21288 12.9984 8.72196C13.2912 8.23105 13.4375 7.56678 13.4375 6.72917C13.4375 5.75909 13.1071 4.94364 12.4463 4.28284C11.7855 3.62205 10.9701 3.29165 10 3.29165C9.02992 3.29165 8.21448 3.62205 7.55367 4.28284C6.89288 4.94364 6.56248 5.75909 6.56248 6.72917C6.56248 7.56678 6.71019 8.23105 7.00561 8.72196C7.30101 9.21288 7.70832 9.80663 8.22755 10.5032C8.53952 10.9231 8.85042 11.3526 9.16025 11.7917C9.47009 12.2308 9.75 12.6945 10 13.1827ZM10 15.0352C9.87714 15.0352 9.75855 14.9936 9.64423 14.9102C9.52993 14.8269 9.45194 14.7142 9.41028 14.5721C9.06946 13.6672 8.68137 12.9161 8.246 12.3189C7.81064 11.7217 7.38142 11.1544 6.95834 10.617C6.39638 9.89903 6.00937 9.24705 5.7973 8.66105C5.58523 8.07505 5.47919 7.43109 5.47919 6.72917C5.47919 5.44071 5.91055 4.36513 6.77325 3.50242C7.63596 2.63971 8.71155 2.20836 10 2.20836C11.2885 2.20836 12.364 2.63971 13.2268 3.50242C14.0895 4.36513 14.5208 5.44071 14.5208 6.72917C14.5208 7.43109 14.4183 8.07505 14.2131 8.66105C14.008 9.24705 13.6245 9.89903 13.0625 10.617C12.6533 11.1544 12.2276 11.7182 11.7853 12.3085C11.3429 12.8987 10.9514 13.6463 10.6106 14.5513C10.555 14.6934 10.4736 14.8095 10.3662 14.8998C10.2588 14.9901 10.1368 15.0352 10 15.0352ZM10 8.16825C10.4081 8.16825 10.75 8.03044 11.0256 7.7548C11.3013 7.47916 11.4391 7.13728 11.4391 6.72917C11.4391 6.32106 11.3013 5.97571 11.0256 5.69313C10.75 5.41055 10.4081 5.26926 10 5.26926C9.59189 5.26926 9.25002 5.41055 8.97438 5.69313C8.69874 5.97571 8.56092 6.32106 8.56092 6.72917C8.56092 7.13728 8.69874 7.47916 8.97438 7.7548C9.25002 8.03044 9.59189 8.16825 10 8.16825Z" fill="#1A1A1A"/>
    </g>
</svg>
