<svg width="33" height="32" viewBox="0 0 33 32" fill="none" xmlns="http://www.w3.org/2000/svg">
    <mask id="mask0_16_1358" style="mask-type:alpha" maskUnits="userSpaceOnUse" x="0" y="0" width="33" height="32">
        <rect x="0.299927" width="32" height="32" fill="#D9D9D9"/>
    </mask>
    <g mask="url(#mask0_16_1358)">
        <path d="M16.2999 26.2974C15.4646 26.2974 14.7637 26.5256 14.1973 26.982C13.6309 27.4384 12.8349 27.6666 11.8093 27.6666C10.7837 27.6666 9.98538 27.4384 9.41443 26.982C8.84349 26.5256 8.14036 26.2974 7.30503 26.2974C6.64405 26.2974 6.09248 26.4372 5.65033 26.7167C5.20815 26.9961 4.71954 27.2322 4.18449 27.4248C3.97425 27.5114 3.77426 27.484 3.58453 27.3427C3.39479 27.2014 3.29993 27.0054 3.29993 26.7547C3.29993 26.5012 3.38468 26.2781 3.55419 26.0855C3.7237 25.8929 3.93182 25.747 4.17853 25.6479C4.6241 25.4622 5.05587 25.2425 5.47383 24.9889C5.89178 24.7354 6.50218 24.6086 7.30503 24.6086C8.33863 24.6086 9.14091 24.8391 9.71186 25.3C10.2828 25.761 11.003 25.9915 11.8726 25.9915C12.7478 25.9915 13.446 25.761 13.9674 25.3C14.4888 24.8391 15.2663 24.6086 16.2999 24.6086C17.3335 24.6086 18.14 24.8391 18.7195 25.3C19.299 25.761 20.0236 25.9915 20.8931 25.9915C21.7683 25.9915 22.466 25.761 22.9862 25.3C23.5065 24.8391 24.2805 24.6086 25.3084 24.6086C26.1113 24.6086 26.7217 24.7354 27.1396 24.9889C27.5576 25.2425 27.9848 25.4622 28.4213 25.6479C28.668 25.747 28.8761 25.8929 29.0456 26.0855C29.2151 26.2781 29.2999 26.5012 29.2999 26.7547C29.2999 27.0054 29.205 27.2014 29.0153 27.3427C28.8255 27.484 28.6255 27.5114 28.4153 27.4248C27.8802 27.2322 27.3976 26.9961 26.9674 26.7167C26.5372 26.4372 25.9842 26.2974 25.3084 26.2974C24.4731 26.2974 23.7848 26.5256 23.2435 26.982C22.7022 27.4384 21.9187 27.6666 20.8931 27.6666C19.8674 27.6666 19.0543 27.4384 18.4538 26.982C17.8532 26.5256 17.1352 26.2974 16.2999 26.2974ZM16.2999 20.1709C15.4554 20.1709 14.7648 20.3991 14.2281 20.8555C13.6913 21.3119 12.9062 21.5401 11.8726 21.5401C10.8389 21.5401 10.0281 21.3119 9.44006 20.8555C8.85204 20.3991 8.14036 20.1709 7.30503 20.1709C6.62925 20.1709 6.06942 20.3129 5.62553 20.597C5.18166 20.881 4.6922 21.1193 4.15716 21.3119C3.94692 21.3929 3.75147 21.3618 3.57083 21.2188C3.39023 21.0758 3.29993 20.8909 3.29993 20.6641C3.29993 20.414 3.38468 20.1986 3.55419 20.018C3.7237 19.8374 3.9244 19.6975 4.15629 19.5983C4.60758 19.4217 5.04448 19.2043 5.46699 18.9462C5.8895 18.6881 6.50218 18.559 7.30503 18.559C8.33863 18.559 9.13007 18.7767 9.67936 19.212C10.2286 19.6473 10.9386 19.865 11.8093 19.865C12.6845 19.865 13.3933 19.6473 13.9358 19.212C14.4783 18.7767 15.2663 18.559 16.2999 18.559C17.3335 18.559 18.1238 18.7767 18.6708 19.212C19.2178 19.6473 19.9289 19.865 20.8042 19.865C21.6794 19.865 22.3919 19.6473 22.9418 19.212C23.4916 18.7767 24.2805 18.559 25.3084 18.559C26.117 18.559 26.7311 18.6881 27.1508 18.9462C27.5704 19.2043 28.0059 19.4217 28.4572 19.5983C28.6891 19.6975 28.8875 19.8374 29.0524 20.018C29.2174 20.1986 29.2999 20.414 29.2999 20.6641C29.2999 20.8909 29.2118 21.0758 29.0358 21.2188C28.8597 21.3618 28.6694 21.3929 28.4649 21.3119C27.9241 21.1193 27.4318 20.881 26.9879 20.597C26.5441 20.3129 25.9842 20.1709 25.3084 20.1709C24.4731 20.1709 23.7868 20.3991 23.2495 20.8555C22.7121 21.3119 21.9267 21.5401 20.8931 21.5401C19.8686 21.5401 19.0557 21.3119 18.4546 20.8555C17.8535 20.3991 17.1352 20.1709 16.2999 20.1709ZM10.288 14.8479L14.6846 10.4513L12.7666 8.53332C12.1614 7.92818 11.5579 7.48587 10.9559 7.20638C10.3539 6.92689 9.63295 6.739 8.79306 6.64272C8.47568 6.6034 8.20446 6.47078 7.97939 6.24485C7.75433 6.01894 7.64179 5.74729 7.64179 5.42991C7.64179 5.11369 7.75333 4.85174 7.97639 4.64405C8.19948 4.43636 8.46971 4.35046 8.78706 4.38635C9.94433 4.49177 10.9392 4.73195 11.7717 5.10688C12.6042 5.48182 13.4252 6.07412 14.2349 6.88378L22.334 14.9829C22.1249 15.1521 21.8922 15.2791 21.6358 15.3637C21.3794 15.4483 21.1064 15.4906 20.817 15.4906C20.1013 15.4906 19.447 15.2624 18.8542 14.806C18.2613 14.3496 17.4099 14.1213 16.2999 14.1213C15.1899 14.1213 14.3422 14.3496 13.7567 14.806C13.1713 15.2624 12.5178 15.4906 11.7965 15.4906C11.474 15.4906 11.1859 15.4317 10.9324 15.3141C10.6788 15.1964 10.464 15.041 10.288 14.8479ZM22.3871 4.51115C23.2252 4.51115 23.9348 4.80133 24.5157 5.38168C25.0966 5.96202 25.387 6.66898 25.387 7.50258C25.387 8.34076 25.0966 9.0503 24.5157 9.63122C23.9348 10.2121 23.2252 10.5026 22.3871 10.5026C21.5489 10.5026 20.8408 10.2121 20.2627 9.63122C19.6847 9.0503 19.3956 8.34076 19.3956 7.50258C19.3956 6.66898 19.6847 5.96202 20.2627 5.38168C20.8408 4.80133 21.5489 4.51115 22.3871 4.51115Z" fill="#1A1A1A"/>
    </g>
</svg>
